<svg xmlns="http://www.w3.org/2000/svg"  viewBox="0 0 64 64" width="128px" height="128px"><radialGradient id="wky4rQpXf~VkJGaHXwXBua" cx="32.5" cy="31.5" r="30.004" gradientUnits="userSpaceOnUse" spreadMethod="reflect"><stop offset="0" stop-color="#eed7a2"/><stop offset=".106" stop-color="#f1dcab"/><stop offset=".437" stop-color="#f8e8c3"/><stop offset=".744" stop-color="#fcefd2"/><stop offset="1" stop-color="#fef2d7"/></radialGradient><path fill="url(#wky4rQpXf~VkJGaHXwXBua)" d="M57,20h1.5c2.168,0,3.892-1.998,3.422-4.243C61.58,14.122,60.056,13,58.385,13L52,13 c-1.105,0-2-0.895-2-2c0-1.105,0.895-2,2-2h1.385c1.67,0,3.195-1.122,3.537-2.757C57.392,3.998,55.668,2,53.5,2h-42 C9.575,2,8,3.575,8,5.5S9.575,9,11.5,9H13c1.105,0,2,0.895,2,2c0,1.105-0.895,2-2,2l-5.385,0c-1.67,0-3.195,1.122-3.537,2.757 C3.608,18.002,5.332,20,7.5,20H18v12L5.615,32c-1.67,0-3.195,1.122-3.537,2.757C1.608,37.002,3.332,39,5.5,39H8c1.105,0,2,0.895,2,2 c0,1.105-0.895,2-2,2H5.5c-2.168,0-3.892,1.998-3.422,4.243C2.42,48.878,3.944,50,5.615,50H11c1.105,0,2,0.895,2,2 c0,1.105-0.895,2-2,2l-1.385,0c-1.67,0-3.195,1.122-3.537,2.757C5.608,59.002,7.332,61,9.5,61h44c1.925,0,3.5-1.575,3.5-3.5 S55.425,54,53.5,54H53c-1.105,0-2-0.895-2-2c0-1.105,0.895-2,2-2h4.385c1.67,0,3.195-1.122,3.537-2.757 C61.392,44.998,59.668,43,57.5,43H40V31h19.385c1.67,0,3.195-1.122,3.537-2.757C63.392,25.998,61.668,24,59.5,24H57 c-1.105,0-2-0.895-2-2C55,20.895,55.895,20,57,20z"/><linearGradient id="wky4rQpXf~VkJGaHXwXBub" x1="32" x2="32" y1="6.866" y2="46.385" gradientUnits="userSpaceOnUse" spreadMethod="reflect"><stop offset="0" stop-color="#40daf2"/><stop offset=".259" stop-color="#3bd3ef"/><stop offset=".624" stop-color="#2ec1e8"/><stop offset="1" stop-color="#1ba7dd"/></linearGradient><path fill="url(#wky4rQpXf~VkJGaHXwXBub)" d="M54,28c0-5.523-4.477-10-10-10c-0.475,0-0.939,0.045-1.397,0.109 C41.332,13.439,37.073,10,32,10s-9.332,3.439-10.603,8.109C20.939,18.045,20.475,18,20,18c-5.523,0-10,4.477-10,10 c0,4.928,3.568,9.014,8.26,9.839l-1.246,12.872C16.843,52.474,18.229,54,20,54h24c1.771,0,3.157-1.526,2.986-3.289L45.74,37.839 C50.432,37.014,54,32.928,54,28z"/><linearGradient id="wky4rQpXf~VkJGaHXwXBuc" x1="32" x2="32" y1="36.325" y2="61.856" gradientUnits="userSpaceOnUse" spreadMethod="reflect"><stop offset="0" stop-color="#155cde"/><stop offset=".661" stop-color="#269aeb"/><stop offset="1" stop-color="#2eb5f0"/></linearGradient><path fill="url(#wky4rQpXf~VkJGaHXwXBuc)" d="M17.014,50.711C16.843,52.474,18.229,54,20,54h24c1.771,0,3.157-1.526,2.986-3.289L46.433,45 H17.567L17.014,50.711z"/><linearGradient id="wky4rQpXf~VkJGaHXwXBud" x1="32" x2="32" y1="-5.459" y2="38.62" gradientUnits="userSpaceOnUse" spreadMethod="reflect"><stop offset="0" stop-color="#40daf2"/><stop offset=".259" stop-color="#3bd3ef"/><stop offset=".624" stop-color="#2ec1e8"/><stop offset="1" stop-color="#1ba7dd"/></linearGradient><path fill="url(#wky4rQpXf~VkJGaHXwXBud)" d="M27,45h19.433l-0.762-7.873c-0.311-0.113-0.653-0.159-1.013-0.098 C43.675,37.194,43,38.124,43,39.122V41c0,0.552-0.448,1-1,1s-1-0.448-1-1v-5.5c0-0.828-0.672-1.5-1.5-1.5S38,34.672,38,35.5V37 c0,0.552-0.448,1-1,1s-1-0.448-1-1v-3.878c0-0.997-0.675-1.927-1.658-2.093C33.093,30.819,32,31.788,32,33v7c0,0.552-0.448,1-1,1 s-1-0.448-1-1v-2.5c0-0.828-0.672-1.5-1.5-1.5S27,36.672,27,37.5V42c0,0.552-0.448,1-1,1s-1-0.448-1-1v-6.5 c0-0.828-0.672-1.5-1.5-1.5S22,34.672,22,35.5V41c0,0.552-0.448,1-1,1s-1-0.448-1-1v-1.878c0-0.997-0.675-1.927-1.658-2.093 c-0.001,0-0.002,0-0.004,0L17.567,45H27z"/></svg>