<svg xmlns="http://www.w3.org/2000/svg" viewBox="0 0 64 64"><circle cx="32" cy="22" r="3" fill="#004fac"/><path fill="#004fac" d="M61,51v2a2.006,2.006,0,0,1-2,2H5a2.006,2.006,0,0,1-2-2V51Z"/><path fill="#006df0" d="M58,51H6a26,26,0,0,1,52,0Z"/><path fill="#57a4ff" d="M15.78 39.3l-1.621-1.171c.342-.473.705-.935 1.08-1.375l1.522 1.3Q16.246 38.652 15.78 39.3zM12 51H10a22.043 22.043 0 0 1 2.619-10.419l1.762.948A20.024 20.024 0 0 0 12 51z"/><rect width="8" height="2" x="42" y="47" fill="#57a4ff"/><rect width="2" height="2" x="52" y="47" fill="#57a4ff"/><path fill="#2488ff" d="M10.92 23h-2c0-3.877 1.768-5.887 3.329-7.661C13.769 13.613 15.08 12.123 15.08 9h2c0 3.877-1.768 5.887-3.329 7.661C12.231 18.387 10.92 19.877 10.92 23zM18.92 23h-2c0-3.877 1.768-5.887 3.329-7.661C21.769 13.613 23.08 12.123 23.08 9h2c0 3.877-1.768 5.887-3.329 7.661C20.231 18.387 18.92 19.877 18.92 23zM41.92 23h-2c0-3.877 1.768-5.887 3.329-7.661C44.769 13.613 46.08 12.123 46.08 9h2c0 3.877-1.768 5.887-3.329 7.661C43.231 18.387 41.92 19.877 41.92 23zM49.92 23h-2c0-3.877 1.768-5.887 3.329-7.661C52.769 13.613 54.08 12.123 54.08 9h2c0 3.877-1.768 5.887-3.329 7.661C51.231 18.387 49.92 19.877 49.92 23z"/></svg>