<?xml version="1.0" encoding="UTF-8"?><svg xmlns="http://www.w3.org/2000/svg" xmlns:xlink="http://www.w3.org/1999/xlink" version="1.1" id="Layer_1" x="0px" y="0px" viewBox="0 0 24 24" xml:space="preserve"><path fill="#303C42" d="M21.5 7a.5.5 0 0 0-.5.5c0 1.534-.646 3.2-2.09 3.464-.13.024-.267.036-.41.036-1.549 0-2.5-2.621-2.5-4.5V4c0-2.206-1.794-4-4-4S8 1.794 8 4v2.5C8 8.379 7.049 11 5.5 11a2.13 2.13 0 0 1-.812-.153C3.663 10.428 3 9.114 3 7.5a.5.5 0 1 0-1 0c0 2.022.907 3.7 2.31 4.273.22.09.451.144.69.18V22c0 1.103.897 2 2 2h10c1.103 0 2-.897 2-2V11.956a.479.479 0 0 0 .073-.007c.005-.001.012 0 .017-.002C21.1 11.58 22 9.45 22 7.5a.5.5 0 0 0-.5-.5zM15 6H9V4c0-1.654 1.346-3 3-3s3 1.346 3 3v2z"/><path fill="#F2F2F2" d="M18 22c0 .551-.449 1-1 1H7c-.551 0-1-.449-1-1V11.95C7.883 11.562 8.843 9.008 8.982 7h6.036c.14 2.008 1.1 4.562 2.982 4.95V22z"/><path opacity="0.2" fill="#FFF" d="M7.5 22V11.95C8.912 11.562 9.632 9.008 9.737 7h-.755c-.14 2.008-1.1 4.562-2.982 4.95V22c0 .551.449 1 1 1h1.25c-.413 0-.75-.449-.75-1z"/><path opacity="0.1" d="M15.018 7h-.755c.105 2.008.825 4.562 2.237 4.95V22c0 .551-.337 1-.75 1H17c.551 0 1-.449 1-1V11.95c-1.883-.388-2.843-2.942-2.982-4.95z"/><path fill="#303C42" d="M14.5 11h-5a.5.5 0 0 0-.5.5V14c0 1.103.897 2 2 2h2c1.103 0 2-.897 2-2v-2.5a.5.5 0 0 0-.5-.5z"/><path fill="#D32F2F" d="M14 14c0 .551-.449 1-1 1h-2c-.551 0-1-.449-1-1v-2h4v2z"/><path opacity="0.2" fill="#FFF" d="M11 14v-2h-1v2c0 .551.449 1 1 1h.5c-.276 0-.5-.449-.5-1z"/><path opacity="0.1" d="M13 12v2c0 .551-.224 1-.5 1h.5c.551 0 1-.449 1-1v-2h-1z"/><linearGradient id="SVGID_1_" gradientUnits="userSpaceOnUse" x1="11.9954376" y1="13.0543671" x2="19.6703434" y2="20.7292728"><stop offset="0" stop-color="#000" stop-opacity="0.1"/><stop offset="1" stop-color="#000" stop-opacity="0"/></linearGradient><path fill="url(#SVGID_1_)" d="M14.86 11.154c.086.09.14.211.14.346V14c0 1.103-.897 2-2 2h-2a1.99 1.99 0 0 1-1.386-.564l7.534 7.534A.989.989 0 0 0 18 22v-7.705l-3.14-3.14z"/><linearGradient id="SVGID_2_" gradientUnits="userSpaceOnUse" x1="1.6128693" y1="8.2188988" x2="21.3428173" y2="17.4191246"><stop offset="0" stop-color="#FFF" stop-opacity="0.2"/><stop offset="1" stop-color="#FFF" stop-opacity="0"/></linearGradient><path fill="url(#SVGID_2_)" d="M21.5 7a.5.5 0 0 0-.5.5c0 1.534-.646 3.2-2.09 3.464-.13.024-.267.036-.41.036-1.549 0-2.5-2.621-2.5-4.5V4c0-2.206-1.794-4-4-4S8 1.794 8 4v2.5C8 8.379 7.049 11 5.5 11a2.13 2.13 0 0 1-.812-.153C3.663 10.428 3 9.114 3 7.5a.5.5 0 1 0-1 0c0 2.022.907 3.7 2.31 4.273.22.09.451.144.69.18V22c0 1.103.897 2 2 2h10c1.103 0 2-.897 2-2V11.956a.479.479 0 0 0 .073-.007c.005-.001.012 0 .017-.002C21.1 11.58 22 9.45 22 7.5a.5.5 0 0 0-.5-.5zM15 6H9V4c0-1.654 1.346-3 3-3s3 1.346 3 3v2z"/><metadata><rdf:RDF xmlns:rdf="http://www.w3.org/1999/02/22-rdf-syntax-ns#" xmlns:rdfs="http://www.w3.org/2000/01/rdf-schema#" xmlns:dc="http://purl.org/dc/elements/1.1/"><rdf:Description about="https://iconscout.com/legal#licenses" dc:title="kitchen,coock,apron" dc:description="kitchen,coock,apron" dc:publisher="Iconscout" dc:date="2017-08-16" dc:format="image/svg+xml" dc:language="en"><dc:creator><rdf:Bag><rdf:li>Those Icons</rdf:li></rdf:Bag></dc:creator></rdf:Description></rdf:RDF></metadata></svg>