<?xml version="1.0" encoding="UTF-8"?>
<svg xmlns="http://www.w3.org/2000/svg" xmlns:xlink="http://www.w3.org/1999/xlink" width="125pt" height="24pt" viewBox="0 0 125 24" version="1.1">
<g id="surface1">
<path style=" stroke:none;fill-rule:nonzero;fill:rgb(0%,0%,0%);fill-opacity:1;" d="M 53.183594 0.785156 C 52.484375 1.960938 53.417969 3.136719 55.125 3.136719 C 56.523438 3.136719 57.765625 1.335938 56.914062 0.472656 C 56.132812 -0.3125 53.730469 -0.078125 53.183594 0.785156 Z M 53.183594 0.785156 "/>
<path style=" stroke:none;fill-rule:nonzero;fill:rgb(0%,0%,0%);fill-opacity:1;" d="M 4.660156 1.960938 C 4.660156 2.585938 5.046875 3.136719 5.4375 3.136719 C 5.898438 3.136719 6.210938 6.039062 6.210938 10.199219 C 6.210938 14.355469 5.898438 17.257812 5.4375 17.257812 C 5.046875 17.257812 4.660156 17.804688 4.660156 18.433594 C 4.660156 19.296875 5.589844 19.609375 8.152344 19.609375 C 10.714844 19.609375 11.648438 19.296875 11.648438 18.433594 C 11.648438 17.804688 11.335938 17.257812 10.871094 17.257812 C 10.480469 17.257812 10.09375 16 10.09375 14.511719 C 10.09375 12.316406 10.402344 11.765625 11.648438 11.765625 C 13.351562 11.765625 15.996094 16.082031 14.753906 16.867188 C 14.285156 17.101562 13.976562 17.882812 13.976562 18.511719 C 13.976562 19.296875 14.90625 19.609375 17.46875 19.609375 C 20.03125 19.609375 20.964844 19.296875 20.964844 18.433594 C 20.964844 17.804688 20.652344 17.257812 20.1875 17.257812 C 19.796875 17.257812 18.710938 15.84375 17.859375 14.042969 C 16.304688 11.140625 16.304688 10.746094 17.390625 9.492188 C 19.257812 7.453125 18.945312 3.453125 16.925781 2.039062 C 14.519531 0.3125 4.660156 0.234375 4.660156 1.960938 Z M 13.507812 3.921875 C 16.925781 5.175781 15.683594 9.414062 11.878906 9.414062 C 10.324219 9.414062 10.09375 9.019531 10.09375 6.273438 C 10.09375 2.902344 10.402344 2.667969 13.507812 3.921875 Z M 13.507812 3.921875 "/>
<path style=" stroke:none;fill-rule:nonzero;fill:rgb(0%,0%,0%);fill-opacity:1;" d="M 76.085938 1.960938 C 76.085938 2.585938 76.476562 3.136719 76.867188 3.136719 C 77.875 3.136719 77.875 16.238281 76.867188 16.867188 C 76.476562 17.101562 76.085938 17.882812 76.085938 18.511719 C 76.085938 19.453125 77.25 19.609375 82.53125 19.453125 L 88.898438 19.21875 L 88.898438 16.867188 C 88.898438 15.296875 88.511719 14.433594 87.578125 14.277344 C 86.722656 14.121094 86.183594 14.511719 86.183594 15.214844 C 86.183594 16.160156 85.40625 16.472656 83.386719 16.472656 C 80.746094 16.472656 80.667969 16.394531 80.902344 13.964844 C 81.136719 11.609375 81.367188 11.375 84.085938 11.140625 C 88.199219 10.746094 88.046875 8.628906 83.851562 8.628906 C 80.902344 8.628906 80.746094 8.46875 80.746094 6.273438 C 80.746094 4.078125 80.980469 3.921875 83.464844 3.921875 C 84.941406 3.921875 86.183594 4.238281 86.183594 4.707031 C 86.183594 5.097656 86.722656 5.488281 87.347656 5.488281 C 88.125 5.488281 88.511719 4.707031 88.511719 3.136719 L 88.511719 0.785156 L 82.296875 0.785156 C 77.328125 0.785156 76.085938 1.019531 76.085938 1.960938 Z M 76.085938 1.960938 "/>
<path style=" stroke:none;fill-rule:nonzero;fill:rgb(0%,0%,0%);fill-opacity:1;" d="M 94.722656 1.882812 C 94.722656 2.507812 95.109375 3.136719 95.5 3.292969 C 96.507812 3.609375 92.625 15.765625 91.074219 17.023438 C 89.367188 18.355469 90.53125 19.609375 93.636719 19.609375 C 96.117188 19.609375 96.273438 19.453125 96.117188 17.023438 C 95.886719 14.667969 96.039062 14.511719 98.839844 14.277344 C 100.933594 14.121094 101.867188 14.355469 102.25 15.296875 C 102.484375 16.082031 102.25 16.945312 101.710938 17.257812 C 100 18.355469 101.710938 19.609375 104.894531 19.609375 C 107.921875 19.609375 108.851562 18.511719 107.144531 16.789062 C 106.757812 16.394531 105.203125 12.707031 103.804688 8.628906 L 101.089844 1.179688 L 97.90625 0.941406 C 95.5 0.785156 94.722656 0.941406 94.722656 1.882812 Z M 100.390625 8.234375 L 101.632812 11.765625 L 96.351562 11.765625 L 97.59375 8.234375 C 98.214844 6.273438 98.839844 4.707031 98.992188 4.707031 C 99.144531 4.707031 99.769531 6.273438 100.390625 8.234375 Z M 100.390625 8.234375 "/>
<path style=" stroke:none;fill-rule:nonzero;fill:rgb(0%,0%,0%);fill-opacity:1;" d="M 107.144531 3.136719 C 107.144531 5.726562 108.15625 6.117188 110.019531 4.316406 C 111.957031 2.273438 112.578125 3.765625 112.578125 10.277344 C 112.578125 15.136719 112.347656 16.628906 111.417969 16.945312 C 110.792969 17.257812 110.25 17.882812 110.25 18.511719 C 110.25 19.296875 111.339844 19.609375 114.132812 19.609375 C 116.925781 19.609375 118.011719 19.296875 118.011719 18.511719 C 118.011719 17.882812 117.472656 17.257812 116.847656 16.945312 C 115.917969 16.628906 115.6875 15.136719 115.6875 10.277344 C 115.6875 3.765625 116.304688 2.273438 118.246094 4.316406 C 120.109375 6.117188 121.117188 5.726562 121.117188 3.136719 L 121.117188 0.785156 L 107.144531 0.785156 Z M 107.144531 3.136719 "/>
<path style=" stroke:none;fill-rule:nonzero;fill:rgb(0%,0%,0%);fill-opacity:1;" d="M 26.007812 5.648438 C 23.371094 7.140625 22.59375 8.863281 22.515625 12.707031 C 22.515625 17.492188 24.378906 19.609375 28.574219 19.609375 C 31.910156 19.609375 33.851562 18.589844 33.074219 17.335938 C 32.6875 16.789062 31.523438 16.628906 29.96875 16.867188 C 28.183594 17.257812 27.175781 17.023438 26.398438 16.082031 C 25.46875 14.980469 25.46875 14.667969 26.476562 14.042969 C 27.097656 13.648438 28.105469 13.335938 28.726562 13.335938 C 30.824219 13.335938 33.386719 10.984375 33.386719 9.019531 C 33.386719 7.058594 30.824219 4.707031 28.726562 4.707031 C 28.105469 4.707031 26.863281 5.175781 26.007812 5.648438 Z M 30.046875 8.3125 C 30.589844 9.726562 29.816406 10.589844 27.40625 11.375 C 25.234375 12 24.921875 10.199219 26.863281 8.3125 C 28.417969 6.746094 29.425781 6.746094 30.046875 8.3125 Z M 30.046875 8.3125 "/>
<path style=" stroke:none;fill-rule:nonzero;fill:rgb(0%,0%,0%);fill-opacity:1;" d="M 40.605469 5.253906 C 39.675781 5.410156 38.046875 6.511719 36.957031 7.609375 C 32.296875 12.234375 35.871094 19.609375 42.78125 19.609375 C 44.488281 19.609375 46.660156 19.21875 47.519531 18.746094 C 49.070312 17.882812 49.070312 17.726562 46.117188 15.296875 L 43.089844 12.707031 L 45.808594 9.804688 C 48.058594 7.453125 48.292969 6.902344 47.363281 6.273438 C 46.738281 5.882812 45.808594 5.488281 45.265625 5.488281 C 44.796875 5.488281 43.945312 5.332031 43.324219 5.175781 C 42.78125 5.019531 41.535156 5.097656 40.605469 5.253906 Z M 40.605469 5.253906 "/>
<path style=" stroke:none;fill-rule:nonzero;fill:rgb(0%,0%,0%);fill-opacity:1;" d="M 66.847656 5.410156 C 66.308594 5.804688 64.441406 5.882812 62.8125 5.726562 C 60.324219 5.332031 59.785156 5.566406 59.785156 6.589844 C 59.785156 7.296875 60.171875 7.84375 60.558594 7.84375 C 61.722656 7.84375 61.570312 22.511719 60.402344 22.984375 C 59.863281 23.21875 61.183594 23.375 63.277344 23.375 C 65.453125 23.375 66.691406 23.21875 66.230469 22.984375 C 65.683594 22.828125 65.21875 21.960938 65.21875 21.101562 C 65.21875 19.925781 65.761719 19.609375 67.859375 19.609375 C 71.585938 19.609375 73.761719 16.707031 73.761719 11.6875 C 73.761719 6.195312 70.34375 3.136719 66.847656 5.410156 Z M 70.1875 10.433594 C 71.195312 13.179688 69.414062 16.867188 67.160156 16.867188 C 65.917969 16.867188 65.527344 16.238281 65.375 13.414062 C 65.21875 11.53125 65.296875 9.492188 65.527344 8.863281 C 66.308594 6.980469 69.414062 8 70.1875 10.433594 Z M 70.1875 10.433594 "/>
<path style=" stroke:none;fill-rule:nonzero;fill:rgb(0%,0%,0%);fill-opacity:1;" d="M 52.019531 6.667969 C 52.019531 7.296875 52.40625 7.84375 52.796875 7.84375 C 53.261719 7.84375 53.574219 9.960938 53.574219 12.550781 C 53.574219 15.136719 53.261719 17.257812 52.796875 17.257812 C 52.40625 17.257812 52.019531 17.804688 52.019531 18.433594 C 52.019531 19.296875 52.875 19.609375 55.125 19.609375 C 57.296875 19.609375 58.230469 19.296875 58.230469 18.511719 C 58.230469 17.882812 57.921875 17.101562 57.453125 16.867188 C 57.066406 16.628906 56.679688 13.964844 56.679688 10.90625 L 56.679688 5.488281 L 54.347656 5.488281 C 52.796875 5.488281 52.019531 5.882812 52.019531 6.667969 Z M 52.019531 6.667969 "/>
</g>
</svg>
